<?xml version="1.0" encoding="utf-8"?>
<svg version="1.1" xmlns:xlink="http://www.w3.org/1999/xlink" width="12px" height="12px" xmlns="http://www.w3.org/2000/svg">
  <g transform="matrix(1 0 0 1 -359 -48 )">
    <path d="M 365 48  C 368.36 48  371 50.64  371 54  C 371 57.36  368.36 60  365 60  C 361.64 60  359 57.36  359 54  C 359 50.64  361.64 48  365 48  Z " fill-rule="nonzero" fill="#ffffff" stroke="none" />
    <path d="M 365 48.5  C 368.08 48.5  370.5 50.92  370.5 54  C 370.5 57.08  368.08 59.5  365 59.5  C 361.92 59.5  359.5 57.08  359.5 54  C 359.5 50.92  361.92 48.5  365 48.5  Z " stroke-width="1" stroke="#797979" fill="none" />
  </g>
</svg>